<svg id="Layer_1" data-name="Layer 1" xmlns="http://www.w3.org/2000/svg" viewBox="0 0 165.2 42.24"><defs><style>.cls-1{fill:#ebe9cf;}</style></defs><path class="cls-1" d="M24.22,39.64a2,2,0,0,1-1,.27.94.94,0,0,1-.9-.53,4.51,4.51,0,0,1-.26-1.8V23.16a23.11,23.11,0,0,0-.37-4.48,5.85,5.85,0,0,0-1.59-3,7.11,7.11,0,0,0-3.29-1.83,17.51,17.51,0,0,0-4.4-.5,20.93,20.93,0,0,0-4.53.47,12.92,12.92,0,0,0-3.58,1.33,8.46,8.46,0,0,0-2.14,1.91,4,4,0,0,0-.77,2.54,4.38,4.38,0,0,0,1,2.89,3.54,3.54,0,0,0,2.89,1.19,4.37,4.37,0,0,0,2.94-1.06,3.56,3.56,0,0,0,1.24-2.86,4,4,0,0,0-.82-2.47,4.83,4.83,0,0,0-2.3-1.61,3.81,3.81,0,0,1,1.75-1,7.69,7.69,0,0,1,2.12-.29,4.48,4.48,0,0,1,2.41.58A3.52,3.52,0,0,1,14,16.67a6.35,6.35,0,0,1,.45,2.46v4.14a2.44,2.44,0,0,1-1,2,10.28,10.28,0,0,1-2.7,1.41c-1.11.4-2.28.81-3.5,1.21a19.68,19.68,0,0,0-3.47,1.54A8.29,8.29,0,0,0,1,31.8a6.17,6.17,0,0,0-1,3.71A6.7,6.7,0,0,0,1.59,40q1.59,1.84,5.14,1.85a9.25,9.25,0,0,0,4.53-1.06,8.76,8.76,0,0,0,3.26-3.23,4.93,4.93,0,0,0,1.09,3c.69.87,2.09,1.3,4.21,1.3a10.09,10.09,0,0,0,3.26-.5,8,8,0,0,0,2.57-1.46l-.53-.9A4.56,4.56,0,0,1,24.22,39.64Zm-9.8-3.33A5.36,5.36,0,0,1,12.69,38a3.84,3.84,0,0,1-1.88.48,3.14,3.14,0,0,1-2.33-1,4.57,4.57,0,0,1-1-3.26,6.32,6.32,0,0,1,.79-3.39,7,7,0,0,1,2-2.1c.79-.54,1.57-1.06,2.33-1.53a5.41,5.41,0,0,0,1.78-1.78Z"/><path class="cls-1" d="M48.18,14.07a4.83,4.83,0,0,0-2.76-.71,7,7,0,0,0-3.07.66,7.75,7.75,0,0,0-2.44,1.83,9.67,9.67,0,0,0-1.7,2.59V13.52a29.34,29.34,0,0,1-3.58.55,41.57,41.57,0,0,1-4.16.19c-1.06,0-2.15-.06-3.28-.16v1.11a2.92,2.92,0,0,1,2.68,1.14,6.89,6.89,0,0,1,.71,3.53V36.57a4.43,4.43,0,0,1-.77,3,3.55,3.55,0,0,1-2.62.8V41.5c.74,0,1.84-.08,3.28-.13s2.88-.08,4.3-.08c1.69,0,3.32,0,4.87.08s2.74.09,3.55.13V40.39a6.27,6.27,0,0,1-3.73-.91c-.83-.6-1.25-1.74-1.25-3.44V22a7.27,7.27,0,0,1,.64-2.92,8.05,8.05,0,0,1,1.72-2.57A4.39,4.39,0,0,1,43,15.21a2.34,2.34,0,0,1,1.48-.05,6.17,6.17,0,0,0-1.67,1.67,4.29,4.29,0,0,0-.66,2.46,3.15,3.15,0,0,0,1,2.47,4.16,4.16,0,0,0,2.89.92,3.85,3.85,0,0,0,3-1.24,4.57,4.57,0,0,0,1.14-3.21,5.52,5.52,0,0,0-.5-2.33A4.44,4.44,0,0,0,48.18,14.07Z"/><path class="cls-1" d="M66.94,38.77a3.15,3.15,0,0,1-1.91.71,2.21,2.21,0,0,1-1.75-.66,3.4,3.4,0,0,1-.58-2.25V15.16H69V14.1H62.7V5.41A12.65,12.65,0,0,1,59.17,6.7a19.46,19.46,0,0,1-4.1.4v7H50.61v1.06h4.46V33.07a21.8,21.8,0,0,0,.37,4.48,5.52,5.52,0,0,0,3.76,4.24,9.54,9.54,0,0,0,3.07.45A6.75,6.75,0,0,0,67,40.7a9.34,9.34,0,0,0,2.58-3.92l-.91-.47A5.94,5.94,0,0,1,66.94,38.77Z"/><path class="cls-1" d="M91.58,14.07a4.78,4.78,0,0,0-2.75-.71,7.06,7.06,0,0,0-3.08.66,7.87,7.87,0,0,0-2.44,1.83,9.64,9.64,0,0,0-1.69,2.59V13.52a29.65,29.65,0,0,1-3.58.55c-1.29.13-2.68.19-4.16.19-1.06,0-2.15-.06-3.29-.16v1.11a2.92,2.92,0,0,1,2.68,1.14A6.77,6.77,0,0,1,74,19.88V36.57a4.43,4.43,0,0,1-.77,3,3.56,3.56,0,0,1-2.63.8V41.5c.75,0,1.84-.08,3.29-.13s2.88-.08,4.29-.08c1.7,0,3.32,0,4.88.08s2.74.09,3.55.13V40.39a6.31,6.31,0,0,1-3.74-.91c-.83-.6-1.24-1.74-1.24-3.44V22a7.43,7.43,0,0,1,.63-2.92A8.08,8.08,0,0,1,84,16.51a4.37,4.37,0,0,1,2.46-1.3,2.38,2.38,0,0,1,1.49-.05,6,6,0,0,0-1.67,1.67,4.22,4.22,0,0,0-.67,2.46,3.16,3.16,0,0,0,1,2.47,4.16,4.16,0,0,0,2.89.92,3.86,3.86,0,0,0,3-1.24,4.57,4.57,0,0,0,1.14-3.21,5.67,5.67,0,0,0-.5-2.33A4.39,4.39,0,0,0,91.58,14.07Z"/><path class="cls-1" d="M122.48,39.25a6.65,6.65,0,0,1-.74-3.53V13.52a29.65,29.65,0,0,1-3.58.55,41.57,41.57,0,0,1-4.16.19c-1.06,0-2.15-.06-3.28-.16v1.11a2.91,2.91,0,0,1,2.67,1.14,6.77,6.77,0,0,1,.72,3.53V33.76a6.54,6.54,0,0,1-1.51,4.37A4.61,4.61,0,0,1,109,39.91a3.16,3.16,0,0,1-2-.56,2.75,2.75,0,0,1-.93-1.56,10.75,10.75,0,0,1-.23-2.33V13.52a29.65,29.65,0,0,1-3.58.55c-1.29.13-2.68.19-4.16.19-1.06,0-2.16-.06-3.29-.16v1.11a2.92,2.92,0,0,1,2.68,1.14,6.79,6.79,0,0,1,.71,3.53v13.4a19.5,19.5,0,0,0,.38,4.24,5.72,5.72,0,0,0,1.27,2.65A5.8,5.8,0,0,0,102,41.66a9.34,9.34,0,0,0,3.6.58,10.92,10.92,0,0,0,5-1.14,7.89,7.89,0,0,0,3.53-3.79v4.77a22.19,22.19,0,0,1,3.6-.58c1.27-.11,2.65-.16,4.14-.16a32.74,32.74,0,0,1,3.28.16V40.39A2.93,2.93,0,0,1,122.48,39.25Z"/><path class="cls-1" d="M138.27,36.57V0a29,29,0,0,1-3.6.56c-1.31.12-2.69.18-4.13.18-1.06,0-2.16-.05-3.29-.16V1.7a2.92,2.92,0,0,1,2.68,1.14,6.85,6.85,0,0,1,.71,3.52V36.57a4.37,4.37,0,0,1-.77,3,3.54,3.54,0,0,1-2.62.8V41.5c.71,0,1.76-.08,3.15-.13s2.79-.08,4.16-.08,2.74,0,4.09.08,2.34.09,3,.13V40.39a3.56,3.56,0,0,1-2.63-.8A4.43,4.43,0,0,1,138.27,36.57Z"/><path class="cls-1" d="M163.37,29.23a31.39,31.39,0,0,0-4.48-3.95c-1.09-.81-2.15-1.58-3.15-2.3a12.79,12.79,0,0,1-2.47-2.28,4.38,4.38,0,0,1-1-2.79,3.06,3.06,0,0,1,1.06-2.51,3.92,3.92,0,0,1,2.6-.88,5.37,5.37,0,0,1,3.63,1.22,7.81,7.81,0,0,1,2.14,3.13,16.74,16.74,0,0,1,1,3.87h1.11q0-3.55.06-5.7t.15-3.63H163q-.42,2.81-2.22,1.59a9.72,9.72,0,0,0-2.42-1.09,12.34,12.34,0,0,0-3.89-.55,12.13,12.13,0,0,0-4.48.82,7.77,7.77,0,0,0-3.37,2.46,6.44,6.44,0,0,0-1.27,4,7,7,0,0,0,1,3.68,12.24,12.24,0,0,0,2.46,3q1.51,1.35,3.21,2.73a39.3,39.3,0,0,1,3.84,3.34,5.28,5.28,0,0,1,1.51,3.87,3.39,3.39,0,0,1-1.17,2.89,4.13,4.13,0,0,1-2.54.87,5.46,5.46,0,0,1-3.68-1.24,8.45,8.45,0,0,1-2.31-3.45,20.37,20.37,0,0,1-1.16-5.06h-1.12c0,2.69,0,4.84,0,6.47s-.09,3-.16,4.13h1.11a3.86,3.86,0,0,1,.61-1.48.8.8,0,0,1,.93-.37c.35.14.73.3,1.14.5l1.3.61a9.4,9.4,0,0,0,2.15.79,11.07,11.07,0,0,0,2.83.32,12.82,12.82,0,0,0,5-1,9,9,0,0,0,3.63-2.73,6.59,6.59,0,0,0,1.38-4.16A7.33,7.33,0,0,0,163.37,29.23Z"/></svg>